<?xml version="1.0" encoding="UTF-8"?>
<svg id="Layer_1" data-name="Layer 1" xmlns="http://www.w3.org/2000/svg" viewBox="0 0 512 512">
  <defs>
    <style>
      .cls-1 {
        fill: none;
        stroke: #2e3440;
        stroke-linecap: round;
        stroke-linejoin: round;
        stroke-width: 15px;
      }

      .cls-2 {
        fill: #eceff4;
        stroke-width: 0px;
      }
    </style>
  </defs>
  <path class="cls-2" d="m452,512H60c-33.14,0-60-26.86-60-60V60C0,26.86,26.86,0,60,0h392c33.14,0,60,26.86,60,60v392c0,33.14-26.86,60-60,60Z"/>
  <g>
    <circle class="cls-1" cx="401.48" cy="256" r="19.8"/>
    <path class="cls-1" d="m354.5,362.53l-89.91,89.91c-4.75,4.75-12.45,4.75-17.19,0L59.56,264.6c-4.75-4.75-4.75-12.45,0-17.19l68.6-68.6"/>
    <path class="cls-1" d="m146.67,160.29l100.73-100.73c4.75-4.75,12.45-4.75,17.19,0l187.84,187.84c4.75,4.75,4.75,12.45,0,17.19l-79.27,79.27"/>
    <path class="cls-1" d="m320.21,191.79c-35.46-35.46-92.96-35.46-128.42,0-35.46,35.46-35.46,92.96,0,128.42,35.46,35.46,92.96,35.46,128.42,0,35.46-35.46,35.46-92.96,0-128.42Zm-100.55,100.55c-20.07-20.07-20.07-52.6,0-72.67,20.07-20.07,52.6-20.07,72.67,0,20.07,20.07,20.07,52.6,0,72.67-20.07,20.07-52.6,20.07-72.67,0Z"/>
    <circle class="cls-1" cx="111.14" cy="256" r="19.8"/>
    <line class="cls-1" x1="256" y1="392.9" x2="256" y2="119.1"/>
  </g>
</svg>